<?xml version="1.0" encoding="utf-8"?>
<!-- Generator: Adobe Illustrator 23.1.0, SVG Export Plug-In . SVG Version: 6.00 Build 0)  -->
<svg version="1.1" id="Шар_1" xmlns="http://www.w3.org/2000/svg" xmlns:xlink="http://www.w3.org/1999/xlink" x="0px" y="0px"
	 viewBox="0 0 20 20" style="enable-background:new 0 0 20 20;" xml:space="preserve">
<style type="text/css">
	.st0{fill:#e51937;}
</style>
<g id="Layer_x0020_1">
	<path class="st0" d="M3.1,7.1l5.8-5.8c0.5-0.5,1.1-0.7,1.7-0.7c0.6,0,1.2,0.2,1.7,0.7l6.9,6.9C19.8,8.8,20,9.4,20,10
		c0,0.6-0.2,1.2-0.7,1.7v0l-6.9,6.9h0c-0.5,0.5-1.1,0.7-1.7,0.7c-0.6,0-1.2-0.2-1.7-0.7h0l-5.8-5.8h4.1l3.4,3.4l6.3-6.3l-6.3-6.3
		L7.3,7.1C7.3,7.1,3.1,7.1,3.1,7.1z M0,8.3h1.9H6h4.2V5.1l4.9,4.9l-4.9,4.9v-3.2H6H1.9H0C0,11.7,0,8.3,0,8.3z"/>
</g>
</svg>
